<?xml version="1.0" standalone="no"?>
<!DOCTYPE svg PUBLIC "-//W3C//DTD SVG 20010904//EN"
 "http://www.w3.org/TR/2001/REC-SVG-20010904/DTD/svg10.dtd">
<svg version="1.0" xmlns="http://www.w3.org/2000/svg"
 width="32.000000pt" height="32.000000pt" viewBox="0 0 32.000000 32.000000"
 preserveAspectRatio="xMidYMid meet">

<g transform="translate(0.000000,32.000000) scale(0.100000,-0.100000)"
fill="#000000" stroke="none">
<path d="M64 256 c-29 -29 -34 -41 -34 -80 0 -88 83 -146 162 -113 34 14 37
14 61 -11 15 -14 30 -23 34 -19 4 4 -5 19 -19 34 -25 24 -25 27 -11 61 21 50
10 94 -33 131 -28 25 -44 31 -80 31 -39 0 -51 -5 -80 -34z m143 -6 c8 0 33
-64 33 -85 0 -35 -50 -85 -85 -85 -37 0 -82 26 -91 52 -12 40 -6 80 17 104 25
27 52 33 94 22 16 -4 31 -8 32 -8z"/>
<path d="M123 220 c-30 -12 -38 -46 -19 -75 20 -30 56 -33 79 -7 20 22 22 44
5 41 -33 -4 -40 2 -36 26 6 27 4 28 -29 15z"/>
</g>
</svg>
