<?xml version="1.0" standalone="no"?>
<!DOCTYPE svg PUBLIC "-//W3C//DTD SVG 20010904//EN"
 "http://www.w3.org/TR/2001/REC-SVG-20010904/DTD/svg10.dtd">
<svg version="1.0" xmlns="http://www.w3.org/2000/svg"
 width="512.000000pt" height="512.000000pt" viewBox="0 0 512.000000 512.000000"
 preserveAspectRatio="xMidYMid meet">

<g transform="translate(0.000000,512.000000) scale(0.100000,-0.100000)"
fill="#000000" stroke="none">
<path d="M2997 5010 c-91 -23 -153 -95 -189 -219 -12 -41 -17 -45 -73 -66 -33
-12 -93 -39 -134 -59 l-74 -38 -67 31 c-83 39 -161 42 -227 10 -45 -22 -168
-151 -197 -206 -40 -79 -32 -165 25 -253 l40 -62 -28 -75 c-30 -80 -32 -82
-115 -103 -67 -17 -122 -61 -152 -122 -23 -47 -26 -63 -26 -166 0 -131 10
-176 52 -227 35 -42 72 -63 152 -85 l59 -16 25 -68 25 -67 -32 -44 c-45 -63
-61 -107 -61 -168 0 -74 34 -137 128 -235 62 -65 86 -83 122 -92 62 -17 137
-7 200 25 l53 27 86 -45 c47 -25 114 -55 148 -67 59 -21 64 -25 74 -64 20 -81
30 -102 60 -139 57 -70 95 -82 250 -82 134 0 136 0 185 30 60 38 88 79 115
166 l20 67 62 22 c34 12 96 40 138 62 l77 39 62 -32 c50 -27 73 -33 123 -33
83 1 128 25 212 116 74 81 101 127 111 187 9 59 -1 100 -47 175 l-40 67 29 76
30 77 58 16 c107 30 147 61 183 140 17 37 21 66 21 163 0 191 -49 264 -202
302 l-64 16 -23 69 -23 68 31 46 c46 66 61 108 61 166 0 70 -19 110 -100 205
-84 101 -135 130 -225 129 -46 -1 -74 -8 -119 -31 l-60 -30 -74 40 c-41 22
-107 53 -146 68 -39 15 -74 33 -78 41 -4 7 -14 39 -23 71 -18 67 -67 128 -129
159 -31 16 -64 21 -146 24 -58 2 -122 -1 -143 -6z m208 -320 c23 -89 37 -121
64 -137 9 -5 62 -24 119 -42 70 -23 132 -52 197 -92 51 -33 106 -62 122 -65
20 -4 53 7 120 40 l91 44 42 -50 43 -50 -24 -31 c-99 -133 -108 -170 -65 -255
13 -26 36 -86 50 -133 35 -114 53 -131 167 -159 l90 -22 -3 -66 -3 -66 -89
-22 c-110 -28 -129 -45 -157 -144 -11 -40 -36 -107 -55 -148 -47 -104 -45
-124 21 -222 l56 -80 -45 -48 -45 -47 -79 43 c-97 51 -130 53 -198 11 -81 -52
-174 -96 -263 -123 -46 -14 -94 -35 -107 -47 -16 -15 -30 -51 -45 -115 l-23
-94 -66 0 -66 0 -23 94 c-15 63 -30 101 -44 114 -12 12 -73 37 -135 58 -79 25
-141 54 -206 95 -117 73 -141 75 -245 18 l-74 -40 -24 23 c-14 13 -34 35 -45
51 l-19 27 55 76 c67 91 70 120 27 215 -16 36 -39 100 -52 142 -29 100 -49
118 -163 143 l-86 19 0 67 c0 55 3 67 18 71 9 3 49 13 89 22 94 22 114 43 148
153 15 48 40 113 56 144 44 87 40 119 -26 213 l-54 78 40 49 c23 26 43 48 45
48 3 0 41 -18 86 -41 45 -23 96 -41 113 -41 33 0 44 5 155 72 36 22 110 54
165 71 127 40 148 59 171 153 29 123 25 117 96 114 l62 -3 21 -85z"/>
<path d="M3055 4169 c-248 -30 -434 -241 -435 -494 0 -142 47 -254 149 -356
199 -199 504 -199 701 0 103 104 150 214 150 351 0 305 -260 535 -565 499z
m152 -250 c130 -40 208 -205 158 -336 -22 -57 -75 -117 -129 -146 -58 -30
-174 -30 -231 0 -184 98 -195 356 -21 458 71 41 140 49 223 24z"/>
<path d="M1429 2210 c-265 -42 -554 -170 -792 -352 -48 -37 -171 -107 -323
-185 -263 -135 -276 -145 -276 -220 0 -43 620 -1210 670 -1262 30 -31 36 -33
80 -29 39 4 88 31 300 163 172 106 265 159 290 162 31 4 61 -7 192 -72 203
-101 336 -157 497 -211 263 -89 418 -110 641 -89 528 51 1102 273 1632 633
214 145 503 382 626 514 158 168 157 389 -2 545 -109 106 -255 145 -399 107
-89 -23 -630 -329 -890 -502 -66 -44 -121 -79 -123 -78 -1 2 2 15 8 30 30 80
-6 208 -73 259 -90 68 -171 91 -396 112 -198 19 -326 38 -441 66 -132 33 -187
62 -265 139 -119 116 -261 192 -461 246 -85 23 -123 27 -269 30 -93 1 -195 -1
-226 -6z m441 -259 c143 -37 260 -99 348 -184 95 -91 123 -110 209 -146 143
-59 341 -97 643 -125 160 -15 219 -26 250 -45 39 -26 -62 -118 -205 -188 -227
-109 -543 -136 -800 -67 -135 36 -166 39 -204 20 -61 -32 -80 -128 -34 -178
75 -83 341 -126 708 -115 279 9 483 41 680 109 126 43 167 65 481 261 421 262
647 388 709 394 126 12 225 -113 171 -215 -26 -48 -218 -225 -398 -364 -535
-416 -1157 -687 -1728 -752 -155 -18 -246 -12 -403 28 -179 46 -468 162 -672
271 -104 56 -182 78 -255 73 l-57 -4 -258 478 c-243 453 -256 480 -239 493 57
43 235 141 316 175 108 45 245 86 333 100 102 15 309 6 405 -19z m-1030 -875
c174 -318 248 -462 240 -470 -5 -5 -63 -43 -127 -82 -90 -56 -121 -70 -129
-61 -14 15 -506 939 -502 942 12 11 255 134 261 132 4 -1 120 -209 257 -461z"/>
</g>
</svg>
